<svg width="53" height="54" viewBox="0 0 53 54" fill="none" xmlns="http://www.w3.org/2000/svg">
<path d="M37.1 12.15C34.9047 12.15 33.125 13.9297 33.125 16.125V16.275C33.125 18.4703 34.9047 20.25 37.1 20.25C39.2953 20.25 41.075 18.4703 41.075 16.275V16.125C41.075 13.9297 39.2953 12.15 37.1 12.15ZM29.15 16.05C29.15 11.6593 32.7093 8.1 37.1 8.1C41.4907 8.1 45.05 11.6593 45.05 16.05V16.35C45.05 20.7407 41.4907 24.3 37.1 24.3C32.7093 24.3 29.15 20.7407 29.15 16.35V16.05ZM37.1 33.75C34.9047 33.75 33.125 35.5297 33.125 37.725V37.875C33.125 40.0703 34.9047 41.85 37.1 41.85C39.2953 41.85 41.075 40.0703 41.075 37.875V37.725C41.075 35.5297 39.2953 33.75 37.1 33.75ZM29.15 37.65C29.15 33.2593 32.7093 29.7 37.1 29.7C41.4907 29.7 45.05 33.2593 45.05 37.65V37.95C45.05 42.3407 41.4907 45.9 37.1 45.9C32.7093 45.9 29.15 42.3407 29.15 37.95V37.65ZM15.9 12.15C13.7047 12.15 11.925 13.9297 11.925 16.125V16.275C11.925 18.4703 13.7047 20.25 15.9 20.25C18.0953 20.25 19.875 18.4703 19.875 16.275V16.125C19.875 13.9297 18.0953 12.15 15.9 12.15ZM7.95 16.05C7.95 11.6593 11.5093 8.1 15.9 8.1C20.2907 8.1 23.85 11.6593 23.85 16.05V16.35C23.85 20.7407 20.2907 24.3 15.9 24.3C11.5093 24.3 7.95 20.7407 7.95 16.35V16.05ZM23.85 31.7061C23.85 30.6084 22.9602 29.7 21.8625 29.7C20.7648 29.7 19.875 30.5898 19.875 31.6875V33.75H21.825C22.9434 33.75 23.85 32.8245 23.85 31.7061ZM19.875 33.75H15.9V37.8H19.875V33.75ZM15.9 31.6875C15.9 30.5898 15.0102 29.7 13.9125 29.7C12.8148 29.7 11.925 30.5898 11.925 31.6875V33.75H15.9V31.6875ZM23.85 39.825C23.85 38.7066 22.9434 37.8 21.825 37.8H19.875V41.85H21.825C22.9434 41.85 23.85 40.9434 23.85 39.825ZM19.875 41.85H15.9V43.9125C15.9 45.0102 16.7898 45.9 17.8875 45.9C18.9852 45.9 19.875 45.0102 19.875 43.9125V41.85ZM15.9 37.8H11.925V41.85H15.9V37.8ZM11.925 33.75H9.97499C8.85662 33.75 7.95 34.6566 7.95 35.775C7.95 36.8934 8.85662 37.8 9.975 37.8H11.925V33.75ZM11.925 41.85H9.97499C8.85662 41.85 7.95 42.7756 7.95 43.8939C7.95 44.9916 8.83983 45.9 9.9375 45.9C11.0352 45.9 11.925 45.0102 11.925 43.9125V41.85ZM0 10.85C0 12.3136 1.18644 13.5 2.65 13.5C4.11356 13.5 5.3 12.3136 5.3 10.85V5.4H10.55C12.0412 5.4 13.25 4.19117 13.25 2.7C13.25 1.20883 12.0412 0 10.55 0H6.625C2.96611 0 0 2.96611 0 6.625V10.85ZM6.625 54C2.96611 54 0 51.0339 0 47.375V43.15C0 41.6864 1.18644 40.5 2.65 40.5C4.11356 40.5 5.3 41.6864 5.3 43.15V48.6H10.55C12.0412 48.6 13.25 49.8088 13.25 51.3C13.25 52.7912 12.0412 54 10.55 54H6.625ZM53 47.375C53 51.0339 50.0339 54 46.375 54H42.45C40.9588 54 39.75 52.7912 39.75 51.3C39.75 49.8088 40.9588 48.6 42.45 48.6H47.7V43.15C47.7 41.6864 48.8864 40.5 50.35 40.5C51.8136 40.5 53 41.6864 53 43.15V47.375ZM46.375 0C50.0339 0 53 2.96611 53 6.625V10.85C53 12.3136 51.8136 13.5 50.35 13.5C48.8864 13.5 47.7 12.3136 47.7 10.85V5.4H42.45C40.9588 5.4 39.75 4.19117 39.75 2.7C39.75 1.20883 40.9588 0 42.45 0H46.375Z" fill="url(#paint0_linear_1956_36)"/>
<defs>
<linearGradient id="paint0_linear_1956_36" x1="26.5" y1="0" x2="26.5" y2="54" gradientUnits="userSpaceOnUse">
<stop stop-color="#7D2AE7"/>
<stop offset="1" stop-color="#08B8CE"/>
</linearGradient>
</defs>
</svg>
